HIERARCHY
ROOT mixamorig:Hips
{
	OFFSET -0.000008 104.274872 1.554316
	CHANNELS 6 Xposition Yposition Zposition Xrotation Yrotation Zrotation
	JOINT mixamorig:Spine
	{
		OFFSET -0.000005 10.181595 0.131519
		CHANNELS 6 Xposition Yposition Zposition Xrotation Yrotation Zrotation
		JOINT mixamorig:Spine1
		{
			OFFSET -0.000000 9.893959 -1.470707
			CHANNELS 6 Xposition Yposition Zposition Xrotation Yrotation Zrotation
			JOINT mixamorig:Spine2
			{
				OFFSET -0.000000 9.220757 -1.370641
				CHANNELS 6 Xposition Yposition Zposition Xrotation Yrotation Zrotation
				JOINT mixamorig:Neck
				{
					OFFSET 0.000001 16.740417 -2.049036
					CHANNELS 6 Xposition Yposition Zposition Xrotation Yrotation Zrotation
					JOINT mixamorig:Head
					{
						OFFSET 0.000000 9.617874 1.685006
						CHANNELS 6 Xposition Yposition Zposition Xrotation Yrotation Zrotation
						JOINT mixamorig:HeadTop_End
						{
							OFFSET 0.000002 22.037354 7.501101
							CHANNELS 6 Xposition Yposition Zposition Xrotation Yrotation Zrotation
							End Site
							{
								OFFSET 0.000168 2310.654297 -282.823242
							}
						}
					}
				}
				JOINT mixamorig:RightShoulder
				{
					OFFSET -4.569970 11.014908 -2.160885
					CHANNELS 6 Xposition Yposition Zposition Xrotation Yrotation Zrotation
					JOINT mixamorig:RightArm
					{
						OFFSET -10.592851 -0.524811 -2.232101
						CHANNELS 6 Xposition Yposition Zposition Xrotation Yrotation Zrotation
						JOINT mixamorig:RightForeArm
						{
							OFFSET -27.841511 0.000031 -0.000004
							CHANNELS 6 Xposition Yposition Zposition Xrotation Yrotation Zrotation
							JOINT mixamorig:RightHand
							{
								OFFSET -28.328831 -0.000015 0.000015
								CHANNELS 6 Xposition Yposition Zposition Xrotation Yrotation Zrotation
								JOINT mixamorig:RightHandThumb1
								{
									OFFSET -2.464806 -1.573990 2.681852
									CHANNELS 6 Xposition Yposition Zposition Xrotation Yrotation Zrotation
									JOINT mixamorig:RightHandThumb2
									{
										OFFSET -3.215179 -1.872803 1.924282
										CHANNELS 6 Xposition Yposition Zposition Xrotation Yrotation Zrotation
										JOINT mixamorig:RightHandThumb3
										{
											OFFSET -2.654831 -1.527969 1.512609
											CHANNELS 6 Xposition Yposition Zposition Xrotation Yrotation Zrotation
											JOINT mixamorig:RightHandThumb4
											{
												OFFSET -2.018814 -1.152008 1.108052
												CHANNELS 6 Xposition Yposition Zposition Xrotation Yrotation Zrotation
												End Site
												{
													OFFSET -188.809540 -114.533607 132.431396
												}
											}
										}
									}
								}
								JOINT mixamorig:RightHandIndex1
								{
									OFFSET -9.108284 -0.517868 2.259835
									CHANNELS 6 Xposition Yposition Zposition Xrotation Yrotation Zrotation
									JOINT mixamorig:RightHandIndex2
									{
										OFFSET -3.699989 0.000000 0.001215
										CHANNELS 6 Xposition Yposition Zposition Xrotation Yrotation Zrotation
										JOINT mixamorig:RightHandIndex3
										{
											OFFSET -2.850006 0.000031 -0.000522
											CHANNELS 6 Xposition Yposition Zposition Xrotation Yrotation Zrotation
											JOINT mixamorig:RightHandIndex4
											{
												OFFSET -2.772186 -0.000015 -0.000020
												CHANNELS 6 Xposition Yposition Zposition Xrotation Yrotation Zrotation
												End Site
												{
													OFFSET -277.218445 0.000000 -0.050231
												}
											}
										}
									}
								}
								JOINT mixamorig:RightHandMiddle1
								{
									OFFSET -9.532516 -0.000031 -0.000023
									CHANNELS 6 Xposition Yposition Zposition Xrotation Yrotation Zrotation
									JOINT mixamorig:RightHandMiddle2
									{
										OFFSET -3.700005 -0.000015 0.003713
										CHANNELS 6 Xposition Yposition Zposition Xrotation Yrotation Zrotation
										JOINT mixamorig:RightHandMiddle3
										{
											OFFSET -2.949974 0.000015 -0.002054
											CHANNELS 6 Xposition Yposition Zposition Xrotation Yrotation Zrotation
											JOINT mixamorig:RightHandMiddle4
											{
												OFFSET -2.946640 0.000000 -0.000156
												CHANNELS 6 Xposition Yposition Zposition Xrotation Yrotation Zrotation
												End Site
												{
													OFFSET -294.664337 0.000000 -0.113670
												}
											}
										}
									}
								}
								JOINT mixamorig:RightHandRing1
								{
									OFFSET -9.103600 -0.043076 -1.865134
									CHANNELS 6 Xposition Yposition Zposition Xrotation Yrotation Zrotation
									JOINT mixamorig:RightHandRing2
									{
										OFFSET -3.379288 0.000000 -0.001055
										CHANNELS 6 Xposition Yposition Zposition Xrotation Yrotation Zrotation
										JOINT mixamorig:RightHandRing3
										{
											OFFSET -2.889687 -0.000015 0.000379
											CHANNELS 6 Xposition Yposition Zposition Xrotation Yrotation Zrotation
											JOINT mixamorig:RightHandRing4
											{
												OFFSET -2.638809 -0.000015 0.000941
												CHANNELS 6 Xposition Yposition Zposition Xrotation Yrotation Zrotation
												End Site
												{
													OFFSET -263.880371 0.000000 0.516020
												}
											}
										}
									}
								}
								JOINT mixamorig:RightHandPinky1
								{
									OFFSET -8.076683 -0.486710 -3.806280
									CHANNELS 6 Xposition Yposition Zposition Xrotation Yrotation Zrotation
									JOINT mixamorig:RightHandPinky2
									{
										OFFSET -3.600014 -0.000015 -0.003747
										CHANNELS 6 Xposition Yposition Zposition Xrotation Yrotation Zrotation
										JOINT mixamorig:RightHandPinky3
										{
											OFFSET -2.099983 0.000000 -0.005739
											CHANNELS 6 Xposition Yposition Zposition Xrotation Yrotation Zrotation
											JOINT mixamorig:RightHandPinky4
											{
												OFFSET -2.115768 -0.000031 -0.003680
												CHANNELS 6 Xposition Yposition Zposition Xrotation Yrotation Zrotation
												End Site
												{
													OFFSET -211.577087 0.000000 -0.350686
												}
											}
										}
									}
								}
							}
						}
					}
				}
				JOINT mixamorig:LeftShoulder
				{
					OFFSET 4.570447 11.014725 -2.160855
					CHANNELS 6 Xposition Yposition Zposition Xrotation Yrotation Zrotation
					JOINT mixamorig:LeftArm
					{
						OFFSET 10.592371 -0.524597 -2.232119
						CHANNELS 6 Xposition Yposition Zposition Xrotation Yrotation Zrotation
						JOINT mixamorig:LeftForeArm
						{
							OFFSET 27.841532 -0.000031 0.000026
							CHANNELS 6 Xposition Yposition Zposition Xrotation Yrotation Zrotation
							JOINT mixamorig:LeftHand
							{
								OFFSET 28.328846 -0.000061 0.000022
								CHANNELS 6 Xposition Yposition Zposition Xrotation Yrotation Zrotation
								JOINT mixamorig:LeftHandThumb1
								{
									OFFSET 2.466141 -1.576172 2.681732
									CHANNELS 6 Xposition Yposition Zposition Xrotation Yrotation Zrotation
									JOINT mixamorig:LeftHandThumb2
									{
										OFFSET 3.217812 -1.872070 1.916482
										CHANNELS 6 Xposition Yposition Zposition Xrotation Yrotation Zrotation
										JOINT mixamorig:LeftHandThumb3
										{
											OFFSET 2.656029 -1.528778 1.514513
											CHANNELS 6 Xposition Yposition Zposition Xrotation Yrotation Zrotation
											JOINT mixamorig:LeftHandThumb4
											{
												OFFSET 2.020889 -1.154053 1.115139
												CHANNELS 6 Xposition Yposition Zposition Xrotation Yrotation Zrotation
												End Site
												{
													OFFSET 190.885437 -115.081749 130.048782
												}
											}
										}
									}
								}
								JOINT mixamorig:LeftHandIndex1
								{
									OFFSET 9.109314 -0.518021 2.259871
									CHANNELS 6 Xposition Yposition Zposition Xrotation Yrotation Zrotation
									JOINT mixamorig:LeftHandIndex2
									{
										OFFSET 3.699989 0.000000 -0.000322
										CHANNELS 6 Xposition Yposition Zposition Xrotation Yrotation Zrotation
										JOINT mixamorig:LeftHandIndex3
										{
											OFFSET 2.850006 0.000000 0.000352
											CHANNELS 6 Xposition Yposition Zposition Xrotation Yrotation Zrotation
											JOINT mixamorig:LeftHandIndex4
											{
												OFFSET 2.774864 -0.000031 -0.000027
												CHANNELS 6 Xposition Yposition Zposition Xrotation Yrotation Zrotation
												End Site
												{
													OFFSET 277.486267 0.000000 -0.009857
												}
											}
										}
									}
								}
								JOINT mixamorig:LeftHandMiddle1
								{
									OFFSET 9.533394 0.000061 0.000044
									CHANNELS 6 Xposition Yposition Zposition Xrotation Yrotation Zrotation
									JOINT mixamorig:LeftHandMiddle2
									{
										OFFSET 3.699989 -0.000015 -0.000231
										CHANNELS 6 Xposition Yposition Zposition Xrotation Yrotation Zrotation
										JOINT mixamorig:LeftHandMiddle3
										{
											OFFSET 2.949997 -0.000015 -0.000059
											CHANNELS 6 Xposition Yposition Zposition Xrotation Yrotation Zrotation
											JOINT mixamorig:LeftHandMiddle4
											{
												OFFSET 2.952896 0.000031 0.000063
												CHANNELS 6 Xposition Yposition Zposition Xrotation Yrotation Zrotation
												End Site
												{
													OFFSET 295.289337 0.000000 0.022810
												}
											}
										}
									}
								}
								JOINT mixamorig:LeftHandRing1
								{
									OFFSET 9.104523 -0.042999 -1.865074
									CHANNELS 6 Xposition Yposition Zposition Xrotation Yrotation Zrotation
									JOINT mixamorig:LeftHandRing2
									{
										OFFSET 3.150009 -0.000031 0.000043
										CHANNELS 6 Xposition Yposition Zposition Xrotation Yrotation Zrotation
										JOINT mixamorig:LeftHandRing3
										{
											OFFSET 2.949982 -0.000015 0.000040
											CHANNELS 6 Xposition Yposition Zposition Xrotation Yrotation Zrotation
											JOINT mixamorig:LeftHandRing4
											{
												OFFSET 2.644348 0.000000 0.000057
												CHANNELS 6 Xposition Yposition Zposition Xrotation Yrotation Zrotation
												End Site
												{
													OFFSET 264.434631 0.000000 0.012105
												}
											}
										}
									}
								}
								JOINT mixamorig:LeftHandPinky1
								{
									OFFSET 8.077789 -0.486847 -3.806259
									CHANNELS 6 Xposition Yposition Zposition Xrotation Yrotation Zrotation
									JOINT mixamorig:LeftHandPinky2
									{
										OFFSET 3.599953 0.000031 0.014727
										CHANNELS 6 Xposition Yposition Zposition Xrotation Yrotation Zrotation
										JOINT mixamorig:LeftHandPinky3
										{
											OFFSET 2.100021 0.000015 0.007705
											CHANNELS 6 Xposition Yposition Zposition Xrotation Yrotation Zrotation
											JOINT mixamorig:LeftHandPinky4
											{
												OFFSET 2.125504 0.000031 0.007517
												CHANNELS 6 Xposition Yposition Zposition Xrotation Yrotation Zrotation
												End Site
												{
													OFFSET 212.550781 0.000000 0.625752
												}
											}
										}
									}
								}
							}
						}
					}
				}
			}
		}
	}
	JOINT mixamorig:RightUpLeg
	{
		OFFSET -8.207787 -6.751648 -1.599560
		CHANNELS 6 Xposition Yposition Zposition Xrotation Yrotation Zrotation
		JOINT mixamorig:RightLeg
		{
			OFFSET -0.000002 -44.370117 0.345942
			CHANNELS 6 Xposition Yposition Zposition Xrotation Yrotation Zrotation
			JOINT mixamorig:RightFoot
			{
				OFFSET 0.000003 -44.423679 -3.043532
				CHANNELS 6 Xposition Yposition Zposition Xrotation Yrotation Zrotation
				JOINT mixamorig:RightToeBase
				{
					OFFSET -0.000002 -8.728671 10.710558
					CHANNELS 6 Xposition Yposition Zposition Xrotation Yrotation Zrotation
					JOINT mixamorig:RightToe_End
					{
						OFFSET -0.000001 -0.000679 9.278119
						CHANNELS 6 Xposition Yposition Zposition Xrotation Yrotation Zrotation
						End Site
						{
							OFFSET 0.000000 -0.067690 927.812134
						}
					}
				}
			}
		}
	}
	JOINT mixamorig:LeftUpLeg
	{
		OFFSET 8.207793 -6.751686 -1.599556
		CHANNELS 6 Xposition Yposition Zposition Xrotation Yrotation Zrotation
		JOINT mixamorig:LeftLeg
		{
			OFFSET -0.000004 -44.370014 0.346954
			CHANNELS 6 Xposition Yposition Zposition Xrotation Yrotation Zrotation
			JOINT mixamorig:LeftFoot
			{
				OFFSET -0.000001 -44.423672 -3.044401
				CHANNELS 6 Xposition Yposition Zposition Xrotation Yrotation Zrotation
				JOINT mixamorig:LeftToeBase
				{
					OFFSET -0.000002 -8.728669 10.710558
					CHANNELS 6 Xposition Yposition Zposition Xrotation Yrotation Zrotation
					JOINT mixamorig:LeftToe_End
					{
						OFFSET -0.000003 -0.000679 9.278133
						CHANNELS 6 Xposition Yposition Zposition Xrotation Yrotation Zrotation
						End Site
						{
							OFFSET 0.000000 -0.068021 927.813477
						}
					}
				}
			}
		}
	}
}
MOTION
Frames: 3
Frame Time: 0.033333
0.000006 104.270477 1.554256 0.000010 0.000003 -0.000113 -0.000005 10.181587 0.131522 0.000001 -0.000003 0.000084 -0.000000 9.893967 -1.470711 0.000001 0.000000 -0.000000 -0.000000 9.220802 -1.370642 0.000000 -0.000000 -0.000000 0.000001 16.740433 -2.049030 0.000000 -0.000000 -0.000000 0.000000 9.617859 1.685014 0.000000 0.000000 0.000000 0.000002 22.037384 7.501101 0.000000 -0.000000 0.000000 -4.569968 11.014880 -2.160881 0.000008 0.000001 -0.000038 -10.592877 -0.524745 -2.231936 74.731074 24.562071 -18.875761 -27.841501 0.000013 0.000567 -46.773781 108.670844 62.148574 -28.328831 0.000005 0.000023 -0.000318 -0.000047 0.000008 -2.464469 -1.573671 2.682289 -54.207291 -178.893446 -32.197136 -3.215291 -1.872611 1.924665 155.013739 29.463114 -9.424216 -2.654948 -1.527885 1.513077 142.309300 27.599813 -41.515088 -2.018827 -1.152026 1.108053 -0.000004 -0.000003 0.000002 -9.108376 -0.517561 2.260116 98.457150 15.944190 -18.503064 -3.700057 0.000320 0.001508 95.848427 13.584023 -15.004503 -2.850074 0.000359 -0.000265 94.187134 11.760695 -12.645186 -2.772143 -0.000015 -0.000017 -0.000001 0.000000 0.000001 -9.532593 0.000252 0.000166 81.519667 16.871716 -14.694310 -3.700053 0.000321 0.003916 81.103531 11.150459 -9.468397 -2.950047 0.000322 -0.001872 83.287463 10.927183 -9.716405 -2.946631 0.000015 -0.000155 0.000002 0.000000 -0.000000 -9.103698 -0.042772 -1.864916 80.181530 19.946557 -16.801422 -3.379331 0.000317 -0.000861 81.702258 8.965877 -7.772020 -2.889779 0.000346 0.000595 87.952981 6.266777 -6.090749 -2.638817 -0.000015 0.000944 0.000002 -0.000001 0.000000 -8.076755 -0.486419 -3.806081 70.591337 21.026789 -14.855134 -3.600047 0.000272 -0.003594 73.297431 9.848536 -7.063588 -2.100023 0.000306 -0.005564 78.074028 5.269403 -4.096327 -2.115760 -0.000056 -0.003676 0.000001 -0.000001 -0.000003 4.570446 11.014691 -2.160851 -0.000018 0.000010 -0.000021 10.592510 -0.524530 -2.232392 62.654411 -61.855641 40.071613 27.841719 -0.000068 -0.000097 244.992274 -73.433611 260.997757 28.328835 -0.000027 0.000022 0.000020 -0.000088 -0.000001 2.466187 -1.576121 2.681874 225.634917 42.325859 -290.046169 3.217824 -1.872015 1.916538 251.178677 45.145392 52.968650 2.656049 -1.528774 1.514605 82.159936 144.034715 -137.712391 2.020891 -1.154068 1.115155 0.000003 -0.000001 0.000002 9.109250 -0.517815 2.260098 70.200739 -163.870923 157.213032 3.699865 0.000243 -0.000087 -114.541808 -23.887596 -36.445206 2.849906 0.000275 0.000604 64.089837 -160.335726 149.049618 2.774875 -0.000032 -0.000023 0.000000 0.000000 0.000002 9.533360 0.000236 0.000259 78.829365 -167.287835 164.568845 3.699904 0.000227 0.000023 65.344973 -161.586635 -208.365740 2.949913 0.000275 0.000173 55.865825 -163.638068 149.655906 2.952869 -0.000001 0.000068 0.000002 -0.000002 -0.000001 9.104479 -0.042817 -1.864822 80.755410 -165.899120 163.448927 3.149914 0.000342 0.000283 -124.613140 -12.649494 -23.850450 2.949899 0.000362 0.000230 215.570565 -8.224788 -25.269634 2.644317 0.000027 0.000049 -0.000002 -0.000001 0.000000 8.077741 -0.486707 -3.806001 89.685438 -167.414876 166.988945 3.599900 0.000338 0.014976 238.634187 -7.294928 -13.576685 2.099937 0.000407 0.007877 208.336083 -3.643608 -15.707803 2.125500 -0.000014 0.007524 -0.000002 -0.000000 -0.000001 -8.207786 -6.751667 -1.599560 -0.077001 -0.000003 0.000080 -0.000002 -44.370110 0.345938 0.153719 -0.000000 -0.000000 0.000000 -44.423679 -3.043532 -0.076700 0.000000 -0.000002 -0.000006 -8.728667 10.710559 -0.000009 -0.000000 -0.000000 -0.000001 -0.000679 9.278123 0.000000 -0.000000 -0.000000 8.207792 -6.751710 -1.599556 -0.074518 -0.000003 0.000081 -0.000002 -44.370014 0.346960 0.148822 0.000002 0.000000 -0.000001 -44.423664 -3.044403 -0.074314 0.000000 -0.000002 -0.000004 -8.728671 10.710558 0.000007 -0.000000 -0.000000 0.000000 -0.000680 9.278137 -0.000000 0.000000 -0.000001 
0.000006 104.270477 1.554256 0.000010 0.000003 -0.000113 -0.000005 10.181587 0.131522 0.000001 -0.000003 0.000084 -0.000000 9.893967 -1.470711 0.000001 0.000000 -0.000000 -0.000000 9.220802 -1.370642 0.000000 -0.000000 -0.000000 0.000001 16.740433 -2.049030 0.000000 -0.000000 -0.000000 0.000000 9.617859 1.685014 0.000000 0.000000 0.000000 0.000002 22.037384 7.501101 0.000000 -0.000000 0.000000 -4.569968 11.014880 -2.160881 0.000008 0.000001 -0.000038 -10.592877 -0.524750 -2.231922 74.690215 25.701824 -19.749285 -27.841509 0.000013 0.000556 -46.919715 108.464866 62.133309 -28.328842 0.000006 0.000024 -0.000319 -0.000043 0.000006 -2.464454 -1.573685 2.682281 -53.708212 -176.944329 -29.399675 -3.215308 -1.872607 1.924677 154.744069 29.592833 -8.591727 -2.654959 -1.527892 1.513073 142.312975 27.634116 -40.905323 -2.018823 -1.151996 1.108052 -0.000003 -0.000001 0.000004 -9.108381 -0.517559 2.260118 98.478870 15.806385 -18.351141 -3.700058 0.000310 0.001511 96.227844 13.726973 -15.262408 -2.850080 0.000368 -0.000267 94.607682 12.062797 -13.064662 -2.772165 -0.000014 -0.000018 0.000002 0.000000 0.000001 -9.532593 0.000261 0.000188 81.262292 16.798500 -14.565167 -3.700052 0.000321 0.003913 81.432254 11.445398 -9.777465 -2.950068 0.000328 -0.001856 84.346477 11.283846 -10.221463 -2.946623 0.000029 -0.000154 0.000002 0.000003 -0.000001 -9.103704 -0.042771 -1.864914 79.899498 19.822556 -16.614090 -3.379346 0.000300 -0.000873 81.496226 8.980128 -7.756198 -2.889760 0.000348 0.000607 88.404006 6.540362 -6.405098 -2.638797 -0.000015 0.000948 0.000001 0.000002 0.000001 -8.076759 -0.486411 -3.806092 70.792343 20.939285 -14.846769 -3.600036 0.000230 -0.003593 72.931961 9.888426 -7.046129 -2.100015 0.000301 -0.005549 78.069711 5.390250 -4.193742 -2.115767 -0.000054 -0.003689 -0.000000 0.000002 -0.000004 4.570446 11.014691 -2.160851 -0.000018 0.000010 -0.000021 10.592514 -0.524540 -2.232394 62.214240 -61.749179 39.675841 27.841740 -0.000082 -0.000086 244.327123 -73.668931 260.029810 28.328829 -0.000028 0.000032 0.000020 -0.000086 0.000001 2.466190 -1.576125 2.681886 223.704842 42.648429 -288.205569 3.217826 -1.872000 1.916537 251.440246 43.936377 52.205680 2.656081 -1.528761 1.514615 82.130491 148.534362 -139.529372 2.020894 -1.154050 1.115142 0.000000 -0.000001 0.000004 9.109222 -0.517824 2.260113 75.981913 -156.512528 150.196748 3.699788 0.000119 -0.000139 -136.744294 -44.738992 -92.128768 2.850061 0.000054 0.000363 137.869814 -49.182963 99.828781 2.774891 -0.000047 -0.000034 -0.000002 0.000003 -0.000002 9.533353 0.000225 0.000283 79.997457 -161.133547 157.604416 3.699795 0.000034 -0.000077 11.150314 -141.982202 -328.365060 2.950057 0.000222 -0.000187 -73.682954 -169.323791 194.221483 2.952871 -0.000014 0.000048 0.000001 0.000000 0.000001 9.104468 -0.042823 -1.864841 80.658489 -162.837242 159.840073 3.149900 -0.000011 0.000111 -185.373834 -13.760728 137.510628 2.949954 0.000279 -0.000153 104.054298 7.273117 -9.308635 2.644325 0.000033 0.000061 -0.000001 0.000001 -0.000000 8.077749 -0.486698 -3.806017 87.341932 -168.520342 167.596095 3.599911 0.000428 0.014884 203.217088 -1.996019 -11.519152 2.099916 0.000388 0.007603 132.637711 9.653900 -21.110911 2.125505 -0.000011 0.007513 -0.000000 0.000001 0.000002 -8.207786 -6.751667 -1.599560 -0.077001 -0.000003 0.000080 -0.000002 -44.370110 0.345938 0.153719 -0.000000 -0.000000 0.000000 -44.423679 -3.043532 -0.076700 0.000000 -0.000002 -0.000006 -8.728667 10.710559 -0.000009 -0.000000 -0.000000 -0.000001 -0.000679 9.278123 0.000000 -0.000000 -0.000000 8.207792 -6.751710 -1.599556 -0.074518 -0.000003 0.000081 -0.000002 -44.370014 0.346960 0.148822 0.000002 0.000000 -0.000001 -44.423664 -3.044403 -0.074314 0.000000 -0.000002 -0.000004 -8.728671 10.710558 0.000007 -0.000000 -0.000000 0.000000 -0.000680 9.278137 -0.000000 0.000000 -0.000001 
0.000006 104.270477 1.554256 0.000010 0.000003 -0.000113 -0.000005 10.181587 0.131522 0.000001 -0.000003 0.000084 -0.000000 9.893967 -1.470711 0.000001 0.000000 -0.000000 -0.000000 9.220802 -1.370642 0.000000 -0.000000 -0.000000 0.000001 16.740433 -2.049030 0.000000 -0.000000 -0.000000 0.000000 9.617859 1.685014 0.000000 0.000000 0.000000 0.000002 22.037384 7.501101 0.000000 -0.000000 0.000000 -4.569968 11.014880 -2.160881 0.000008 0.000001 -0.000038 -10.592879 -0.524743 -2.231942 74.565892 23.740010 -18.182828 -27.841511 -0.000002 0.000544 -46.767453 108.924271 62.377830 -28.328835 0.000022 0.000023 -0.000322 -0.000046 0.000006 -2.464465 -1.573670 2.682286 -53.990081 -178.123492 -30.981899 -3.215289 -1.872626 1.924656 155.035773 29.621520 -8.475718 -2.654953 -1.527899 1.513077 142.979437 27.504198 -40.559449 -2.018834 -1.151987 1.108073 -0.000004 -0.000003 0.000002 -9.108371 -0.517564 2.260128 98.646872 15.934983 -18.553398 -3.700071 0.000314 0.001509 96.221567 13.995359 -15.558850 -2.850083 0.000366 -0.000272 94.510564 12.240088 -13.234120 -2.772165 -0.000015 -0.000020 0.000002 -0.000000 0.000001 -9.532585 0.000258 0.000180 81.102411 17.033684 -14.727247 -3.700074 0.000324 0.003914 81.794801 11.411371 -9.810397 -2.950043 0.000340 -0.001862 84.835737 11.365120 -10.383414 -2.946630 -0.000012 -0.000153 -0.000001 -0.000000 -0.000001 -9.103710 -0.042779 -1.864921 79.655442 19.526754 -16.294521 -3.379335 0.000316 -0.000875 81.844258 8.688305 -7.550401 -2.889764 0.000339 0.000602 88.369527 6.477683 -6.340276 -2.638800 -0.000029 0.000940 0.000002 -0.000001 -0.000001 -8.076757 -0.486410 -3.806098 71.107447 20.452114 -14.579261 -3.600048 0.000253 -0.003598 73.413633 9.871492 -7.095627 -2.100025 0.000309 -0.005542 78.039009 5.466813 -4.253332 -2.115761 -0.000041 -0.003683 -0.000000 0.000002 -0.000003 4.570446 11.014691 -2.160851 -0.000018 0.000010 -0.000021 10.592514 -0.524538 -2.232392 62.603615 -61.239415 39.586072 27.841738 -0.000081 -0.000090 244.445203 -73.466949 260.366401 28.328831 -0.000028 0.000036 0.000024 -0.000090 0.000000 2.466179 -1.576119 2.681892 229.376494 44.457794 -291.833657 3.217842 -1.872005 1.916544 254.997736 42.391661 48.974949 2.656055 -1.528745 1.514617 89.658397 153.846924 -145.756387 2.020887 -1.154067 1.115147 0.000004 0.000006 0.000004 9.109221 -0.517854 2.260117 77.986028 -155.234477 149.659813 3.699983 -0.000016 -0.000237 -202.600432 -60.780836 -217.603010 2.850079 0.000158 0.000234 92.406019 -24.429399 25.442468 2.774883 -0.000019 -0.000029 -0.000000 -0.000001 -0.000002 9.533325 0.000231 0.000279 81.077023 -159.536717 156.170131 3.700087 0.000048 -0.000233 -45.343573 -138.864713 -456.141643 2.950045 0.000178 -0.000221 -92.158718 -170.223218 189.419601 2.952855 -0.000032 0.000065 0.000000 0.000001 -0.000002 9.104475 -0.042851 -1.864831 84.140704 -162.216706 160.332871 3.150105 0.000223 0.000020 -211.246017 -15.572457 52.122345 2.949972 0.000255 -0.000142 95.157943 4.241650 -4.639873 2.644323 0.000047 0.000053 -0.000003 0.000002 0.000001 8.077746 -0.486690 -3.806000 87.001952 -169.966594 169.030653 3.599780 0.000441 0.014795 179.860724 0.304969 -45.263223 2.099936 0.000344 0.007521 113.832923 8.481284 -12.472185 2.125504 -0.000000 0.007514 -0.000000 -0.000000 -0.000000 -8.207786 -6.751667 -1.599560 -0.077001 -0.000003 0.000080 -0.000002 -44.370110 0.345938 0.153719 -0.000000 -0.000000 0.000000 -44.423679 -3.043532 -0.076700 0.000000 -0.000002 -0.000006 -8.728667 10.710559 -0.000009 -0.000000 -0.000000 -0.000001 -0.000679 9.278123 0.000000 -0.000000 -0.000000 8.207792 -6.751710 -1.599556 -0.074518 -0.000003 0.000081 -0.000002 -44.370014 0.346960 0.148822 0.000002 0.000000 -0.000001 -44.423664 -3.044403 -0.074314 0.000000 -0.000002 -0.000004 -8.728671 10.710558 0.000007 -0.000000 -0.000000 0.000000 -0.000680 9.278137 -0.000000 0.000000 -0.000001 
